<svg aria-hidden="true" style="position: absolute; width: 0; height: 0; overflow: hidden;" version="1.1" xmlns="http://www.w3.org/2000/svg" xmlns:xlink="http://www.w3.org/1999/xlink">
<defs>
<symbol id="icon-facebook-1-1" viewBox="0 0 29 32">
<path   d="M19.398 6.466h2.659v-4.856c-0.459-0.067-2.036-0.215-3.872-0.215-3.833 0-6.457 2.528-6.457 7.176v4.277h-4.228v5.429h4.227v13.658h5.185v-13.658h4.057l0.643-5.429h-4.702v-3.738c0-1.568 0.403-2.642 2.488-2.642z"></path>
</symbol>
<symbol id="icon-group-1" viewBox="0 0 28 32">
<path d="M4.086 0l4.772 4.518-8.858-0.005v21.919h23.153v-8.381l4.767 4.513v-22.563h-23.834zM22.943 17.52l-13.531-12.809h13.531v12.809zM18.743 23.224h-15.079v-14.74h1.066v13.743h14.013v0.998zM7.225 29.35l-0.557 1.147-0.557-1.147h-0.467l0.813 1.529v0.891h0.422v-0.891l0.811-1.529h-0.465zM7.925 31.77l0.196-0.564h0.938l0.197 0.564h0.439l-0.916-2.421h-0.378l-0.914 2.421h0.437zM8.59 29.864l0.351 1.004h-0.701l0.351-1.004zM10.808 30.81c-0.057 0.085-0.091 0.19-0.091 0.303 0 0.001 0 0.003 0 0.004v-0c0 0.204 0.072 0.37 0.214 0.497s0.336 0.19 0.575 0.19c0.239 0 0.445-0.065 0.618-0.195l0.136 0.161h0.469l-0.355-0.421c0.14-0.191 0.209-0.435 0.209-0.733h-0.351c0 0.163-0.034 0.311-0.101 0.444l-0.468-0.552 0.165-0.12c0.1-0.068 0.184-0.152 0.249-0.249l0.002-0.003c0.048-0.079 0.076-0.174 0.076-0.275 0-0.001 0-0.003-0-0.004v0c0-0.003 0-0.006 0-0.009 0-0.149-0.065-0.283-0.169-0.374l-0.001-0c-0.108-0.097-0.251-0.157-0.408-0.157-0.008 0-0.017 0-0.025 0l0.001-0c-0.195 0-0.35 0.056-0.465 0.166s-0.173 0.259-0.173 0.449c0 0.078 0.018 0.157 0.054 0.241 0.038 0.083 0.104 0.184 0.197 0.302-0.179 0.129-0.3 0.24-0.36 0.334zM11.9 31.345c-0.104 0.084-0.237 0.135-0.382 0.136h-0c-0.006 0-0.013 0-0.020 0-0.104 0-0.199-0.040-0.27-0.106l0 0c-0.067-0.066-0.109-0.158-0.109-0.259 0-0.005 0-0.009 0-0.014l-0 0.001c0-0.129 0.067-0.245 0.2-0.346l0.052-0.037 0.528 0.624zM11.466 30.272c-0.114-0.141-0.172-0.257-0.172-0.351 0-0.081 0.024-0.148 0.070-0.201 0.044-0.049 0.107-0.081 0.178-0.081 0.004 0 0.007 0 0.010 0l-0.001-0c0.003-0 0.006-0 0.009-0 0.067 0 0.127 0.026 0.173 0.068l-0-0c0.048 0.045 0.072 0.099 0.072 0.161 0 0.003 0 0.006 0 0.009 0 0.090-0.040 0.171-0.103 0.226l-0 0-0.052 0.041-0.185 0.127zM15.406 31.587c0.166-0.145 0.261-0.347 0.286-0.605h-0.419c-0.022 0.173-0.075 0.296-0.158 0.37s-0.208 0.112-0.373 0.112c-0.18 0-0.318-0.069-0.412-0.206s-0.14-0.337-0.14-0.599v-0.214c0.003-0.259 0.052-0.454 0.15-0.587 0.099-0.134 0.24-0.201 0.422-0.201 0.157 0 0.276 0.039 0.357 0.116s0.133 0.202 0.153 0.376h0.419c-0.027-0.265-0.121-0.47-0.285-0.615s-0.378-0.218-0.645-0.218c-0.198 0-0.373 0.048-0.525 0.142-0.152 0.097-0.271 0.234-0.345 0.396l-0.002 0.006c-0.077 0.169-0.122 0.367-0.122 0.576 0 0.010 0 0.020 0 0.030l-0-0.001v0.226c0.003 0.223 0.045 0.418 0.125 0.587s0.193 0.298 0.339 0.39c0.148 0.091 0.318 0.136 0.511 0.136 0.276 0 0.497-0.072 0.663-0.216zM17.878 31.248c0.082-0.18 0.123-0.388 0.123-0.625v-0.134c0-0.007 0-0.016 0-0.024 0-0.216-0.047-0.421-0.131-0.605l0.004 0.009c-0.077-0.171-0.199-0.31-0.35-0.406l-0.004-0.002c-0.152-0.095-0.326-0.143-0.524-0.143s-0.372 0.048-0.525 0.144c-0.152 0.095-0.27 0.233-0.354 0.414-0.079 0.175-0.125 0.38-0.125 0.595 0 0.011 0 0.021 0 0.032l-0-0.002v0.136c0.001 0.232 0.043 0.436 0.126 0.613 0.084 0.178 0.203 0.315 0.356 0.411 0.154 0.095 0.329 0.143 0.525 0.143 0.199 0 0.374-0.048 0.526-0.143 0.153-0.097 0.27-0.234 0.352-0.413zM17.428 29.879c0.102 0.143 0.153 0.349 0.153 0.618v0.126c0 0.272-0.050 0.48-0.151 0.622-0.099 0.142-0.242 0.213-0.429 0.213-0.005 0-0.011 0-0.017 0-0.171 0-0.323-0.086-0.413-0.217l-0.001-0.002c-0.104-0.145-0.155-0.351-0.155-0.617v-0.14c0.002-0.26 0.054-0.462 0.156-0.603 0.091-0.131 0.24-0.215 0.41-0.215 0.006 0 0.012 0 0.018 0l-0.001-0c0.187 0 0.33 0.072 0.431 0.215z"></path>
</symbol>
<symbol id="icon-group-1-1" viewBox="0 0 25 32">
<path  d="M10.538 1.806h-0.084c-0.108-0.006-0.243-0.012-0.379-0.014l-0.009-0h-0.28c-0.244 0-0.494 0.006-0.741 0.019-0.008-0-0.018-0.001-0.028-0.001s-0.020 0-0.029 0.001l0.001-0c-2.376 0.139-4.582 0.733-6.577 1.697l0.104-0.045-0.266 0.128v13.628l0.623-0.211c0.404-0.148 0.982-0.324 1.569-0.477l0.162-0.036c1.489-0.398 3.203-0.638 4.969-0.662l0.015-0v1.79c-0.237 0.002-0.466 0.009-0.693 0.021l0.038-0.002h-0.051c-1.399 0.079-2.711 0.289-3.973 0.619l0.139-0.031c-1.59 0.398-3.125 0.996-4.567 1.779v-17.479c1.379-0.82 2.975-1.488 4.664-1.921l0.127-0.028c1.354-0.364 2.909-0.576 4.512-0.582h0.267c0.314 0.008 0.621 0.022 0.909 0.044 0.759 0.053 1.511 0.173 2.25 0.358v1.762c-0.628-0.154-1.372-0.271-2.134-0.326l-0.046-0.003-0.045-0.004c-0.152-0.013-0.304-0.026-0.446-0.026zM13.641 3.608c0.391 0.030 0.796 0.044 1.205 0.044 1.69-0.006 3.325-0.228 4.883-0.639l-0.135 0.030c1.589-0.4 3.124-0.998 4.565-1.781v17.167c-1.38 0.82-2.976 1.488-4.666 1.921l-0.127 0.028c-1.353 0.362-2.908 0.574-4.512 0.581l-0.005 0c-0.033 0-0.072 0-0.111 0-1.177 0-2.319-0.148-3.41-0.425l0.095 0.021v-17.279c0.265 0.061 0.537 0.117 0.814 0.164 0.455 0.077 0.934 0.133 1.401 0.167zM22.377 3.741l-0.623 0.21c-0.573 0.192-1.15 0.365-1.731 0.518-1.551 0.415-3.333 0.656-5.17 0.663h-0.004c-0.406 0-0.78-0.011-1.141-0.034l-0.497-0.033v14.020l0.427 0.038c0.395 0.034 0.803 0.052 1.214 0.052 1.451-0.007 2.854-0.198 4.191-0.553l-0.116 0.026c1.222-0.31 2.282-0.702 3.287-1.189l-0.102 0.045 0.266-0.128v-13.633zM1.689 25.983c-0.166-0.173-0.4-0.281-0.658-0.281-0.012 0-0.024 0-0.037 0.001l0.002-0c-0.004-0-0.009-0-0.013-0-0.139 0-0.272 0.028-0.394 0.078l0.007-0.003c-0.236 0.096-0.419 0.281-0.51 0.512l-0.002 0.006c-0.046 0.112-0.072 0.241-0.072 0.377 0 0.003 0 0.007 0 0.010v-0.001 2.336c-0.006 0.165 0.026 0.328 0.092 0.479 0.055 0.12 0.135 0.226 0.233 0.313 0.089 0.076 0.197 0.133 0.315 0.165l0.006 0.001c0.114 0.032 0.231 0.048 0.349 0.049 0.403-0.004 0.746-0.253 0.89-0.604l0.002-0.006c0.047-0.109 0.075-0.237 0.075-0.37 0-0.001 0-0.001 0-0.002v0-0.261h-0.61v0.208c0 0.005 0 0.010 0 0.016 0 0.069-0.013 0.135-0.038 0.196l0.001-0.004c-0.021 0.052-0.051 0.095-0.089 0.131l-0 0c-0.036 0.029-0.079 0.052-0.125 0.066l-0.003 0.001c-0.038 0.013-0.082 0.021-0.128 0.022h-0c-0.010 0.001-0.022 0.002-0.034 0.002-0.103 0-0.194-0.050-0.252-0.126l-0.001-0.001c-0.051-0.082-0.082-0.181-0.082-0.288 0-0.009 0-0.018 0.001-0.027l-0 0.001v-2.178c-0-0.007-0-0.016-0-0.024 0-0.118 0.028-0.23 0.077-0.329l-0.002 0.004c0.056-0.087 0.152-0.143 0.261-0.143 0.013 0 0.026 0.001 0.039 0.002l-0.002-0c0.003-0 0.006-0 0.009-0 0.107 0 0.202 0.051 0.263 0.13l0.001 0.001c0.068 0.090 0.104 0.2 0.101 0.313v0.202h0.604v-0.238c0-0.002 0-0.005 0-0.008 0-0.281-0.106-0.537-0.28-0.731l0.001 0.001zM5.316 25.956c-0.184-0.16-0.425-0.258-0.69-0.258s-0.507 0.098-0.691 0.259l0.001-0.001c-0.099 0.090-0.179 0.198-0.235 0.321l-0.002 0.006c-0.056 0.128-0.089 0.277-0.089 0.434 0 0.006 0 0.013 0 0.019v-0.001 2.24c-0 0.009-0 0.019-0 0.029 0 0.156 0.033 0.304 0.092 0.437l-0.003-0.007c0.055 0.12 0.136 0.227 0.237 0.313 0.090 0.084 0.197 0.151 0.316 0.195l0.006 0.002c0.108 0.042 0.233 0.067 0.364 0.067s0.256-0.024 0.371-0.069l-0.007 0.002c0.121-0.044 0.233-0.111 0.33-0.197 0.096-0.086 0.173-0.19 0.228-0.307l0.002-0.006c0.056-0.127 0.089-0.275 0.089-0.43 0-0.010-0-0.020-0-0.030l0 0.001v-2.24c0-0.007 0-0.014 0-0.022 0-0.155-0.033-0.303-0.092-0.437l0.003 0.007c-0.057-0.128-0.135-0.236-0.23-0.327l-0-0zM5.031 28.976c0.001 0.010 0.001 0.022 0.001 0.034 0 0.114-0.047 0.217-0.122 0.29l-0 0c-0.077 0.065-0.177 0.105-0.287 0.105s-0.21-0.040-0.288-0.105l0.001 0.001c-0.076-0.072-0.123-0.174-0.123-0.287 0-0.013 0.001-0.026 0.002-0.039l-0 0.002v-2.24c-0.001-0.010-0.001-0.022-0.001-0.034 0-0.114 0.047-0.217 0.122-0.29l0-0c0.077-0.065 0.177-0.105 0.287-0.105s0.21 0.040 0.288 0.105l-0.001-0.001c0.076 0.072 0.123 0.174 0.123 0.287 0 0.013-0.001 0.026-0.002 0.039l0-0.002v2.24zM10.079 29.976v-4.24h-0.587l-0.771 2.245h-0.011l-0.777-2.245h-0.581v4.24h0.606v-2.58h0.011l0.593 1.823h0.302l0.598-1.823h0.011v2.58h0.606zM13.521 26.033c-0.092-0.103-0.207-0.182-0.337-0.23l-0.006-0.002c-0.125-0.042-0.27-0.066-0.42-0.066-0.007 0-0.014 0-0.021 0h-0.899v4.24h0.604v-1.656h0.311c0.188 0.009 0.376-0.031 0.545-0.116 0.139-0.078 0.251-0.188 0.33-0.32l0.002-0.004c0.067-0.106 0.115-0.23 0.138-0.363l0.001-0.006c0.024-0.16 0.035-0.321 0.033-0.482 0.001-0.021 0.001-0.046 0.001-0.070 0-0.19-0.022-0.375-0.063-0.552l0.003 0.016c-0.043-0.153-0.12-0.284-0.223-0.39l0 0zM13.209 27.326c-0.003 0.081-0.024 0.157-0.057 0.224l0.001-0.003c-0.035 0.065-0.089 0.117-0.154 0.148l-0.002 0.001c-0.074 0.034-0.161 0.054-0.253 0.054-0.011 0-0.023-0-0.034-0.001l0.002 0h-0.275v-1.441h0.311c0.009-0 0.019-0.001 0.029-0.001 0.088 0 0.172 0.020 0.247 0.055l-0.004-0.002c0.062 0.037 0.111 0.090 0.141 0.155l0.001 0.002c0.032 0.069 0.051 0.15 0.053 0.235l0 0.001v0.282c0 0.099 0.006 0.2 0 0.291h-0.006zM16.383 25.736h-0.495l-0.934 4.24h0.604l0.177-0.911h0.823l0.177 0.911h0.604l-0.957-4.24zM15.826 28.488l0.297-1.537h0.011l0.296 1.537h-0.604zM20.287 28.291h-0.011l-0.912-2.555h-0.581v4.24h0.604v-2.55h0.012l0.923 2.55h0.568v-4.24h-0.604v2.555zM23.979 25.736l-0.486 1.685h-0.012l-0.486-1.685h-0.64l0.83 2.448v1.792h0.604v-1.792l0.83-2.448h-0.64zM0.005 31.174h0.291v0.817h0.198v-0.817h0.29v-0.167h-0.778v0.167zM2.452 31.006l-0.381 0.984h0.21l0.081-0.224h0.392l0.084 0.224h0.215l-0.391-0.984h-0.21zM2.421 31.601l0.134-0.365 0.134 0.365h-0.268zM4.872 31.628h0.227v0.127c-0.064 0.051-0.145 0.082-0.234 0.083h-0c-0.005 0-0.011 0.001-0.017 0.001-0.078 0-0.147-0.036-0.192-0.093l-0-0.001c-0.046-0.066-0.074-0.147-0.074-0.235 0-0.008 0-0.016 0.001-0.023l-0 0.001c0-0.219 0.095-0.329 0.283-0.329 0.006-0.001 0.014-0.001 0.022-0.001 0.097 0 0.178 0.067 0.2 0.157l0 0.001 0.195-0.038c-0.042-0.192-0.181-0.289-0.417-0.289-0.004-0-0.008-0-0.013-0-0.128 0-0.244 0.048-0.332 0.128l0-0c-0.088 0.089-0.142 0.212-0.142 0.347 0 0.011 0 0.023 0.001 0.034l-0-0.002c-0 0.007-0.001 0.016-0.001 0.025 0 0.132 0.048 0.252 0.127 0.345l-0.001-0.001c0.087 0.090 0.208 0.145 0.343 0.145 0.011 0 0.022-0 0.033-0.001l-0.001 0c0.005 0 0.010 0 0.016 0 0.155 0 0.296-0.060 0.401-0.158l-0 0v-0.388h-0.427v0.166zM7.344 31.006h-0.199v0.984h0.69v-0.167h-0.49v-0.817zM9.433 31.006h-0.199v0.984h0.199v-0.984zM11.477 31.664l-0.403-0.657h-0.193v0.984h0.185v-0.643l0.395 0.643h0.198v-0.984h-0.182v0.657zM13.323 31.557h0.49v-0.167h-0.49v-0.216h0.528v-0.167h-0.727v0.984h0.747v-0.167h-0.548v-0.266zM17.801 31.395h-0.388v-0.388h-0.198v0.984h0.198v-0.43h0.388v0.43h0.198v-0.984h-0.198v0.388zM19.659 31.557h0.492v-0.167h-0.492v-0.216h0.529v-0.167h-0.727v0.984h0.746v-0.167h-0.548v-0.266zM22.178 31.557c0.171-0.027 0.258-0.117 0.258-0.274 0.001-0.008 0.002-0.018 0.002-0.028 0-0.078-0.038-0.148-0.097-0.191l-0.001-0c-0.073-0.037-0.158-0.059-0.249-0.059-0.014 0-0.027 0-0.041 0.001l0.002-0h-0.417v0.984h0.198v-0.412h0.039c0.005-0 0.011-0.001 0.017-0.001 0.038 0 0.075 0.008 0.108 0.023l-0.002-0.001c0.029 0.018 0.052 0.042 0.069 0.071l0.001 0.001 0.215 0.313h0.237l-0.12-0.192c-0.054-0.096-0.128-0.175-0.216-0.235l-0.002-0.002zM21.979 31.421h-0.146v-0.247h0.156c0.013-0.001 0.027-0.002 0.042-0.002 0.057 0 0.112 0.009 0.163 0.026l-0.004-0.001c0.014 0.013 0.026 0.029 0.033 0.046 0.006 0.015 0.010 0.032 0.010 0.050 0 0.022-0.005 0.043-0.015 0.062l0-0.001c-0.009 0.017-0.022 0.032-0.037 0.043l-0 0c-0.048 0.015-0.104 0.024-0.162 0.024-0.014 0-0.028-0-0.041-0.002l0.002 0zM24.078 31.557h0.49v-0.167h-0.49v-0.216h0.529v-0.167h-0.729v0.984h0.747v-0.167h-0.548v-0.266z"></path>
</symbol>
<symbol id="icon-group-2-1" viewBox="0 0 34 32">
<path  d="M5.646 31.326c0.025 0 0.047 0.010 0.064 0.025l-0-0 0.166 0.159c-0.13 0.128-0.285 0.23-0.458 0.299l-0.009 0.003c-0.21 0.076-0.435 0.113-0.663 0.108-0.010 0-0.021 0-0.033 0-0.212 0-0.415-0.037-0.603-0.105l0.012 0.004c-0.182-0.066-0.338-0.163-0.47-0.286l0.001 0.001c-0.128-0.121-0.231-0.268-0.3-0.432l-0.003-0.008c-0.067-0.163-0.106-0.351-0.106-0.549 0-0.006 0-0.011 0-0.017v0.001c-0-0.009-0-0.020-0-0.031 0-0.387 0.168-0.736 0.435-0.976l0.001-0.001c0.142-0.124 0.312-0.222 0.499-0.287 0.205-0.069 0.422-0.103 0.642-0.101 0.204-0.004 0.407 0.027 0.596 0.092 0.165 0.062 0.316 0.148 0.447 0.255l-0.139 0.17c-0.010 0.012-0.022 0.022-0.034 0.031l-0.001 0c-0.014 0.008-0.031 0.013-0.049 0.013-0.002 0-0.005-0-0.007-0l0 0c-0.022-0.001-0.043-0.008-0.061-0.018l0.001 0-0.075-0.045-0.104-0.058c-0.037-0.018-0.083-0.037-0.13-0.053l-0.009-0.003c-0.127-0.040-0.273-0.063-0.425-0.063-0.004 0-0.008 0-0.012 0h0.001c-0.005-0-0.012-0-0.018-0-0.159 0-0.311 0.028-0.453 0.079l0.009-0.003c-0.136 0.048-0.26 0.121-0.361 0.213-0.099 0.093-0.179 0.206-0.233 0.333l-0.002 0.006c-0.054 0.129-0.085 0.278-0.085 0.435 0 0.005 0 0.009 0 0.014v-0.001c-0 0.005-0 0.011-0 0.017 0 0.158 0.031 0.309 0.088 0.446l-0.003-0.008c0.056 0.132 0.134 0.245 0.231 0.338l0 0c0.095 0.091 0.211 0.163 0.339 0.207l0.007 0.002c0.136 0.049 0.281 0.073 0.428 0.072 0.085 0.001 0.17-0.004 0.253-0.014 0.211-0.022 0.399-0.107 0.55-0.234l-0.001 0.001c0.021-0.018 0.049-0.029 0.079-0.029h0zM10.446 30.528c0.003 0.192-0.035 0.382-0.112 0.561-0.068 0.163-0.174 0.311-0.313 0.436s-0.306 0.222-0.491 0.286c-0.189 0.064-0.406 0.101-0.632 0.101s-0.443-0.037-0.646-0.105l0.014 0.004c-0.189-0.067-0.351-0.165-0.49-0.288l0.001 0.001c-0.133-0.121-0.24-0.267-0.313-0.432l-0.003-0.008c-0.071-0.166-0.113-0.36-0.113-0.563s0.041-0.397 0.116-0.572l-0.004 0.010c0.071-0.164 0.178-0.314 0.316-0.442 0.139-0.12 0.305-0.214 0.488-0.276 0.188-0.065 0.406-0.103 0.632-0.103s0.443 0.038 0.646 0.107l-0.014-0.004c0.185 0.065 0.351 0.163 0.49 0.287 0.137 0.125 0.243 0.273 0.314 0.435 0.077 0.181 0.115 0.372 0.112 0.565zM10.010 30.528c0-0.007 0-0.016 0-0.025 0-0.153-0.029-0.3-0.082-0.435l0.003 0.008c-0.051-0.132-0.127-0.245-0.222-0.338l-0-0c-0.097-0.092-0.215-0.165-0.344-0.211l-0.007-0.002c-0.137-0.047-0.295-0.074-0.459-0.074s-0.322 0.027-0.469 0.077l0.010-0.003c-0.137 0.048-0.254 0.121-0.352 0.213l0-0c-0.097 0.092-0.174 0.205-0.222 0.332l-0.002 0.006c-0.050 0.134-0.080 0.29-0.080 0.452s0.029 0.317 0.082 0.461l-0.003-0.009c0.101 0.26 0.309 0.46 0.569 0.547l0.007 0.002c0.137 0.046 0.295 0.072 0.459 0.072s0.322-0.026 0.47-0.075l-0.011 0.003c0.136-0.048 0.254-0.12 0.352-0.212l-0.001 0c0.095-0.093 0.171-0.206 0.22-0.332l0.002-0.006c0.056-0.145 0.082-0.298 0.079-0.451zM13.721 31.001l0.044 0.101c0.017-0.036 0.031-0.069 0.048-0.101 0.019-0.039 0.037-0.072 0.056-0.103l-0.002 0.004 1.063-1.678c0.021-0.029 0.039-0.047 0.060-0.052s0.047-0.009 0.072-0.009c0.005 0 0.010 0 0.015 0l-0.001-0h0.314v2.728h-0.372v-2.091c-0.001-0.014-0.002-0.030-0.002-0.047s0.001-0.033 0.002-0.049l-0 0.002-1.069 1.701c-0.014 0.025-0.035 0.047-0.063 0.062s-0.059 0.023-0.091 0.023h-0.060c-0.032 0-0.064-0.007-0.091-0.022s-0.049-0.037-0.062-0.062l-1.099-1.712v2.19h-0.359v-2.723h0.314c0.005-0 0.010-0 0.015-0 0.026 0 0.050 0.003 0.074 0.010l-0.002-0c0.026 0.011 0.046 0.030 0.058 0.052l1.085 1.679c0.019 0.028 0.037 0.060 0.052 0.093l0.002 0.004zM17.718 30.866v1.021h-0.415v-2.724h0.926c0.175-0.003 0.349 0.017 0.517 0.059 0.134 0.033 0.259 0.091 0.366 0.17 0.089 0.071 0.159 0.16 0.206 0.263l0.002 0.004c0.045 0.099 0.071 0.214 0.071 0.335 0 0.005-0 0.009-0 0.014v-0.001c0 0.003 0 0.006 0 0.010 0 0.248-0.117 0.469-0.299 0.61l-0.002 0.001c-0.104 0.080-0.227 0.142-0.361 0.178l-0.007 0.002c-0.14 0.040-0.301 0.063-0.468 0.063-0.012 0-0.024-0-0.035-0l0.002 0-0.503-0.007zM17.718 30.573h0.503c0.003 0 0.007 0 0.011 0 0.111 0 0.218-0.015 0.32-0.043l-0.008 0.002c0.089-0.026 0.167-0.066 0.235-0.118l-0.002 0.001c0.117-0.097 0.191-0.243 0.191-0.406 0-0.001 0-0.002 0-0.004v0c0.005-0.076-0.009-0.151-0.042-0.222s-0.082-0.134-0.145-0.186c-0.138-0.093-0.309-0.149-0.492-0.149-0.024 0-0.047 0.001-0.070 0.003l0.003-0h-0.503v1.123zM23.305 31.891h-0.328c-0.002 0-0.004 0-0.006 0-0.032 0-0.061-0.009-0.086-0.025l0.001 0c-0.023-0.016-0.041-0.037-0.054-0.062l-0-0.001-0.282-0.659h-1.42l-0.293 0.659c-0.025 0.052-0.077 0.088-0.138 0.088-0.002 0-0.005-0-0.007-0h-0.328l1.247-2.728h0.432l1.264 2.728zM21.247 30.878h1.173l-0.494-1.111c-0.033-0.071-0.065-0.156-0.090-0.244l-0.003-0.012-0.048 0.143c-0.016 0.047-0.031 0.086-0.049 0.123l0.003-0.007-0.49 1.108zM25.101 29.175c0.025 0.012 0.045 0.029 0.062 0.049l0 0 1.819 2.057v-2.118h0.372v2.728h-0.208c-0.002 0-0.004 0-0.006 0-0.029 0-0.056-0.006-0.080-0.017l0.001 0c-0.026-0.013-0.048-0.030-0.067-0.050l-0-0-1.817-2.055c0.001 0.014 0.002 0.030 0.002 0.047s-0.001 0.033-0.002 0.049l0-0.002v2.028h-0.372v-2.728h0.22c0.002-0 0.004-0 0.006-0 0.025 0 0.049 0.005 0.071 0.014l-0.001-0zM30.416 30.806v1.084h-0.415v-1.084l-1.15-1.643h0.372c0.003-0 0.006-0 0.009-0 0.030 0 0.058 0.009 0.081 0.024l-0.001-0c0.022 0.017 0.041 0.037 0.055 0.060l0.001 0.001 0.719 1.059c0.050 0.070 0.092 0.15 0.125 0.235l0.002 0.007 0.054-0.117c0.023-0.049 0.047-0.090 0.073-0.128l-0.002 0.003 0.708-1.067c0.016-0.022 0.034-0.041 0.054-0.058l0-0c0.023-0.017 0.052-0.027 0.083-0.027 0.002 0 0.004 0 0.006 0h0.376l-1.152 1.651zM13.516 24.584c0.181 0.020 0.364 0.036 0.548 0.051 2.804-1.090 5.176-2.874 6.82-5.128s2.486-4.88 2.422-7.549l-3.090-2.685c0.628 2.841 0.334 5.779-0.849 8.483s-3.209 5.069-5.852 6.83z"></path>
<path  d="M12.413 24.459l0.083 0.014c2.823-1.755 4.976-4.205 6.179-7.033s1.403-5.907 0.571-8.834l-4.402-3.825c1.781 3.143 2.497 6.662 2.067 10.146s-1.99 6.789-4.498 9.532zM27.341 15.11c-0.747 2.932-2.564 5.577-5.179 7.54-0.714 0.544-1.52 1.053-2.369 1.491l-0.092 0.043c2.129-0.544 4.087-1.505 5.721-2.81s2.901-2.918 3.705-4.716l-1.785-1.55z"></path>
<path  d="M26.64 14.677l-2.542-2.208c-0.049 2.518-0.872 4.978-2.386 7.126s-3.662 3.904-6.22 5.086h0.012c0.57 0 1.14-0.030 1.706-0.088 2.391-0.848 4.504-2.197 6.15-3.928s2.772-3.787 3.279-5.988zM12.78 3.168l-3.032-2.638c-2.71 0.91-5.042 2.51-6.689 4.59s-2.532 4.544-2.541 7.069c0.010 2.79 1.091 5.498 3.071 7.694s4.747 3.756 7.863 4.432c2.781-2.943 4.409-6.582 4.648-10.385s-0.924-7.572-3.321-10.762zM33.645 14.271c-0.011-3.311-1.53-6.482-4.223-8.822s-6.345-3.66-10.155-3.67c-0.009-0-0.020-0-0.030-0-1.831 0-3.591 0.305-5.232 0.866l0.114-0.034 18.566 16.13c0.605-1.314 0.959-2.851 0.96-4.47v-0.001z"></path>
</symbol>
<symbol id="icon-group-3-1" viewBox="0 0 65 32">
<path  d="M10.017 9.986h-0.002c-1.827 0-3.308 1.316-3.308 2.94v0.002c0 1.624 1.481 2.94 3.308 2.94h0.002c1.827 0 3.308-1.316 3.308-2.94v-0.002c0-1.624-1.481-2.94-3.308-2.94zM34.438 9.046c-0.005-2.255-1.015-4.418-2.81-6.013s-4.227-2.493-6.765-2.498c-2.538 0.004-4.973 0.902-6.768 2.497s-2.806 3.757-2.811 6.014v12.437s19.151-1.895 19.153-12.435v-0.002zM0 25.567c0.005 1.569 0.708 3.073 1.956 4.184s2.94 1.735 4.707 1.74c1.765-0.005 3.457-0.63 4.706-1.739s1.952-2.613 1.957-4.183v-8.655s-13.327 1.32-13.327 8.653zM6.663 27.117c-0.345 0-0.682-0.091-0.969-0.261s-0.511-0.413-0.643-0.696-0.167-0.595-0.099-0.896 0.233-0.577 0.477-0.794 0.555-0.364 0.893-0.424c0.338-0.060 0.689-0.029 1.008 0.088s0.591 0.316 0.783 0.571c0.184 0.235 0.295 0.535 0.295 0.861 0 0.216-0.049 0.421-0.136 0.603l0.004-0.009c-0.087 0.189-0.216 0.36-0.378 0.505s-0.355 0.259-0.567 0.338-0.439 0.119-0.669 0.119v-0.006zM20.13 26.263h-1.286v1.328h-0.67v-3.25h2.116v0.542h-1.446v0.839h1.286v0.54zM23.349 26.040c0 0.32-0.057 0.6-0.17 0.842s-0.275 0.427-0.487 0.558c-0.21 0.131-0.451 0.196-0.723 0.196-0.012 0-0.027 0.001-0.042 0.001-0.516 0-0.961-0.303-1.167-0.741l-0.003-0.008c-0.111-0.235-0.176-0.51-0.176-0.801 0-0.010 0-0.021 0-0.031l-0 0.002v-0.161c0-0.32 0.057-0.601 0.172-0.844 0.207-0.45 0.653-0.757 1.171-0.757 0.014 0 0.029 0 0.043 0.001l-0.002-0c0.271 0 0.511 0.065 0.721 0.196 0.211 0.129 0.374 0.316 0.489 0.56 0.116 0.242 0.174 0.523 0.174 0.841v0.145zM22.671 25.893c0-0.341-0.061-0.6-0.183-0.777s-0.296-0.266-0.522-0.266c-0.008-0-0.016-0.001-0.025-0.001-0.205 0-0.386 0.104-0.493 0.262l-0.001 0.002c-0.122 0.174-0.184 0.43-0.185 0.768v0.158c0 0.332 0.061 0.589 0.183 0.772s0.298 0.275 0.527 0.275c0.008 0 0.017 0.001 0.025 0.001 0.205 0 0.385-0.104 0.491-0.261l0.001-0.002c0.121-0.177 0.182-0.434 0.183-0.772v-0.158zM25.521 26.739c0-0.005 0-0.012 0-0.018 0-0.11-0.052-0.209-0.134-0.271l-0.001-0.001c-0.089-0.068-0.25-0.14-0.482-0.214-0.214-0.067-0.397-0.142-0.57-0.232l0.019 0.009c-0.369-0.199-0.554-0.468-0.554-0.806 0-0.176 0.049-0.332 0.147-0.469 0.109-0.143 0.253-0.255 0.419-0.322l0.007-0.002c0.186-0.077 0.394-0.116 0.625-0.116 0.232 0 0.439 0.042 0.621 0.127 0.175 0.078 0.318 0.2 0.42 0.352l0.002 0.004c0.095 0.143 0.152 0.319 0.152 0.509 0 0.005-0 0.009-0 0.014v-0.001h-0.67c0-0.008 0.001-0.016 0.001-0.025 0-0.127-0.055-0.241-0.141-0.321l-0-0c-0.094-0.083-0.225-0.125-0.395-0.125-0.164 0-0.291 0.035-0.382 0.105-0.083 0.059-0.136 0.155-0.136 0.263 0 0.003 0 0.006 0 0.009v-0c0 0.106 0.053 0.194 0.158 0.266 0.107 0.071 0.264 0.138 0.471 0.201 0.381 0.115 0.659 0.257 0.833 0.426s0.261 0.381 0.261 0.634c0 0.009 0.001 0.020 0.001 0.031 0 0.258-0.125 0.488-0.318 0.631l-0.002 0.002c-0.213 0.159-0.499 0.239-0.859 0.239-0.25 0-0.478-0.045-0.683-0.136-0.193-0.082-0.352-0.212-0.469-0.374l-0.002-0.003c-0.101-0.151-0.161-0.336-0.161-0.535 0-0.007 0-0.013 0-0.020v0.001h0.672c0 0.359 0.214 0.538 0.643 0.538 0.011 0.001 0.024 0.001 0.037 0.001 0.125 0 0.241-0.036 0.339-0.099l-0.003 0.002c0.082-0.058 0.134-0.153 0.134-0.26 0-0.004-0-0.009-0-0.013l0 0.001zM29.096 24.884h-0.996v2.708h-0.67v-2.708h-0.982v-0.542h2.647v0.542zM31.435 26.183h-1.286v0.871h1.509v0.538h-2.179v-3.25h2.174v0.542h-1.504v0.775h1.286v0.525zM33.255 26.401h-0.533v1.19h-0.67v-3.25h1.208c0.384 0 0.68 0.086 0.888 0.257s0.312 0.413 0.312 0.725c0 0.011 0.001 0.024 0.001 0.037 0 0.192-0.054 0.371-0.148 0.524l0.002-0.004c-0.108 0.156-0.255 0.278-0.429 0.351l-0.006 0.002 0.703 1.328v0.031h-0.719l-0.609-1.19zM32.721 25.859h0.54c0.168 0 0.298-0.042 0.391-0.127 0.086-0.084 0.139-0.201 0.139-0.33 0-0.009-0-0.017-0.001-0.026l0 0.001c0-0.008 0.001-0.017 0.001-0.027 0-0.13-0.051-0.248-0.133-0.336l0 0c-0.086-0.088-0.219-0.132-0.4-0.132h-0.538v0.975zM36.779 26.446v1.145h-0.67v-3.25h1.268c0.244 0 0.458 0.045 0.643 0.134 0.18 0.084 0.327 0.215 0.427 0.378l0.002 0.004c0.1 0.164 0.15 0.35 0.15 0.56 0 0.318-0.109 0.57-0.328 0.754-0.217 0.183-0.519 0.275-0.904 0.275h-0.587zM36.779 25.904h0.598c0.177 0 0.312-0.042 0.404-0.125 0.094-0.083 0.141-0.202 0.141-0.357 0-0.159-0.047-0.288-0.141-0.386s-0.223-0.149-0.388-0.152h-0.614v1.020zM41.017 26.183h-1.286v0.871h1.509v0.538h-2.179v-3.25h2.174v0.542h-1.504v0.775h1.286v0.525zM44.124 24.884h-0.995v2.708h-0.67v-2.708h-0.982v-0.542h2.647v0.542zM46.464 26.183h-1.286v0.871h1.509v0.538h-2.178v-3.25h2.174v0.542h-1.504v0.775h1.286v0.525zM48.283 26.401h-0.533v1.19h-0.67v-3.25h1.208c0.384 0 0.68 0.086 0.888 0.257s0.313 0.413 0.313 0.725c0 0.011 0.001 0.024 0.001 0.037 0 0.192-0.054 0.371-0.148 0.524l0.002-0.004c-0.108 0.156-0.255 0.278-0.429 0.351l-0.006 0.002 0.703 1.328v0.031h-0.719l-0.609-1.19zM47.75 25.859h0.54c0.168 0 0.298-0.042 0.391-0.127 0.086-0.084 0.139-0.201 0.139-0.33 0-0.009-0-0.017-0.001-0.026l0 0.001c0-0.008 0.001-0.017 0.001-0.027 0-0.13-0.051-0.248-0.133-0.336l0 0c-0.086-0.088-0.219-0.132-0.4-0.132h-0.538v0.975zM51.685 26.739c0-0.005 0-0.012 0-0.018 0-0.11-0.052-0.209-0.134-0.271l-0.001-0.001c-0.089-0.068-0.25-0.14-0.482-0.214-0.214-0.067-0.397-0.142-0.57-0.232l0.019 0.009c-0.369-0.199-0.554-0.468-0.554-0.806 0-0.176 0.049-0.332 0.147-0.469 0.109-0.143 0.253-0.255 0.419-0.322l0.007-0.002c0.186-0.077 0.394-0.116 0.625-0.116 0.232 0 0.439 0.042 0.621 0.127 0.175 0.078 0.318 0.199 0.42 0.352l0.002 0.004c0.095 0.143 0.152 0.319 0.152 0.509 0 0.005-0 0.009-0 0.014v-0.001h-0.67c0-0.008 0.001-0.016 0.001-0.025 0-0.127-0.054-0.241-0.141-0.321l-0-0c-0.094-0.083-0.225-0.125-0.395-0.125-0.164 0-0.291 0.035-0.382 0.105-0.083 0.059-0.136 0.155-0.136 0.263 0 0.003 0 0.006 0 0.009v-0c0 0.106 0.053 0.194 0.158 0.266 0.107 0.071 0.264 0.138 0.471 0.201 0.381 0.115 0.658 0.257 0.833 0.426s0.261 0.381 0.261 0.634c0 0.009 0.001 0.020 0.001 0.031 0 0.258-0.125 0.488-0.318 0.631l-0.002 0.002c-0.213 0.159-0.499 0.239-0.859 0.239-0.25 0-0.478-0.045-0.683-0.136-0.193-0.082-0.352-0.212-0.469-0.374l-0.002-0.003c-0.101-0.151-0.161-0.336-0.161-0.535 0-0.007 0-0.013 0-0.020v0.001h0.672c0 0.359 0.214 0.538 0.643 0.538 0.011 0.001 0.023 0.001 0.036 0.001 0.125 0 0.242-0.036 0.34-0.099l-0.003 0.002c0.082-0.058 0.134-0.153 0.134-0.26 0-0.004-0-0.009-0-0.013l0 0.001z"></path>
</symbol>
<symbol id="icon-group-4-1" viewBox="0 0 43 32">
<path  d="M3.24 26.381c0.155 0.173 0.25 0.402 0.25 0.654 0 0.004-0 0.008-0 0.012v-0.001c0.008 0.158-0.022 0.315-0.089 0.46s-0.169 0.275-0.298 0.38c-0.282 0.195-0.631 0.311-1.008 0.311-0.041 0-0.082-0.001-0.123-0.004l0.006 0h-1.978v-4.217h1.938c0.382-0.023 0.761 0.076 1.073 0.28 0.125 0.096 0.224 0.217 0.289 0.354s0.095 0.286 0.086 0.435c0.001 0.012 0.001 0.026 0.001 0.040 0 0.232-0.086 0.444-0.227 0.606l0.001-0.001c-0.152 0.166-0.354 0.284-0.583 0.328l-0.007 0.001c0.262 0.044 0.499 0.172 0.668 0.36zM0.92 25.744h0.828c0.018 0.001 0.039 0.002 0.060 0.002 0.174 0 0.335-0.053 0.469-0.144l-0.003 0.002c0.062-0.052 0.111-0.116 0.141-0.187s0.043-0.148 0.036-0.225c0.006-0.076-0.007-0.153-0.037-0.224s-0.078-0.135-0.138-0.188c-0.134-0.091-0.299-0.145-0.477-0.145-0.023 0-0.046 0.001-0.068 0.003l0.003-0h-0.814v1.106zM2.356 27.361c0.066-0.053 0.119-0.119 0.153-0.193s0.049-0.155 0.043-0.235c0.005-0.081-0.010-0.163-0.045-0.238s-0.088-0.142-0.155-0.195c-0.142-0.096-0.317-0.154-0.505-0.154-0.020 0-0.040 0.001-0.059 0.002l0.003-0h-0.868v1.159h0.879c0.016 0.001 0.035 0.002 0.053 0.002 0.187 0 0.361-0.055 0.506-0.15l-0.004 0.002zM7.2 28.193l-1.077-1.648h-0.405v1.648h-0.927v-4.217h1.755c0.442-0.028 0.879 0.1 1.221 0.358 0.245 0.229 0.393 0.53 0.417 0.85s-0.078 0.637-0.287 0.894c-0.218 0.224-0.506 0.379-0.829 0.427l-0.008 0.001 1.147 1.685h-1.008zM5.717 25.971h0.758c0.526 0 0.789-0.213 0.789-0.638 0.001-0.011 0.001-0.024 0.001-0.037 0-0.173-0.075-0.328-0.194-0.435l-0.001-0c-0.144-0.109-0.325-0.174-0.522-0.174-0.026 0-0.052 0.001-0.077 0.003l0.003-0h-0.767l0.009 1.283zM12.266 27.345h-1.848l-0.326 0.848h-0.972l1.697-4.169h1.050l1.69 4.169h-0.972l-0.319-0.848zM12.019 26.706l-0.675-1.78-0.675 1.78h1.349zM18.609 28.193h-0.92l-2.063-2.868v2.868h-0.918v-4.217h0.918l2.063 2.884v-2.884h0.92v4.217zM23.861 27.184c-0.19 0.318-0.48 0.577-0.832 0.743-0.4 0.185-0.845 0.276-1.293 0.266h-1.638v-4.217h1.638c0.448-0.011 0.891 0.078 1.293 0.259 0.352 0.163 0.642 0.419 0.832 0.735 0.189 0.343 0.288 0.722 0.288 1.106s-0.099 0.763-0.288 1.106zM22.807 27.083c0.263-0.28 0.407-0.637 0.407-1.006s-0.144-0.726-0.407-1.006c-0.285-0.225-0.649-0.361-1.046-0.361-0.038 0-0.075 0.001-0.112 0.004l0.005-0h-0.639v2.73h0.639c0.031 0.002 0.068 0.003 0.104 0.003 0.397 0 0.762-0.136 1.052-0.364l-0.004 0.003zM12.843 0.52s11.877 4.106 11.625 10.047v10.049s-11.868-4.108-11.621-10.049l-0.005-10.047zM35.050 18.264c2.243-1.413 4.838-2.289 7.547-2.546v-3.146c-3.121 1.101-5.768 3.098-7.547 5.692z"></path>
<path  d="M33.702 19.211c1.836-3.385 5.019-5.997 8.894-7.299v-9.064s-16.915 5.848-16.557 14.309v14.307s0.753-0.262 1.94-0.752c0-0.457 0-0.918 0.054-1.383 0.35-3.927 2.39-7.568 5.67-10.119z"></path>
<path  d="M32.093 24.527c0.099-1.082 0.309-2.076 0.62-3.025l-0.027 0.096c-2.043 2.204-3.279 4.938-3.537 7.818-0.025 0.272-0.038 0.544-0.045 0.824 1.41-0.617 2.479-1.142 3.525-1.703l-0.272 0.133c-0.202-0.878-0.318-1.886-0.318-2.921 0-0.43 0.020-0.855 0.059-1.275l-0.004 0.054zM32.766 24.578c-0.033 0.348-0.052 0.752-0.052 1.161 0 0.917 0.095 1.812 0.276 2.675l-0.015-0.084c4.622-2.532 9.815-6.444 9.614-11.172v-0.412c-3.302 0.338-6.391 1.66-8.793 3.761-0.53 1.19-0.896 2.571-1.027 4.020l-0.004 0.051z"></path>
</symbol>
<symbol id="icon-group-5-1" viewBox="0 0 67 32">
<path  d="M33.732 15.228c-0.271-0.35-0.435-0.795-0.435-1.278 0-0.048 0.002-0.096 0.005-0.143l-0 0.006v-2.050c0-0.628 0.142-1.106 0.428-1.433s0.775-0.489 1.469-0.488c0.652 0 1.115 0.139 1.389 0.417 0.299 0.355 0.444 0.789 0.411 1.226v0.482h-1.167v-0.488c0.001-0.019 0.001-0.042 0.001-0.064 0-0.146-0.013-0.29-0.037-0.429l0.002 0.015c-0.020-0.115-0.081-0.214-0.166-0.283l-0.001-0.001c-0.106-0.071-0.236-0.113-0.375-0.113-0.017 0-0.033 0.001-0.050 0.002l0.002-0c-0.015-0.001-0.033-0.002-0.051-0.002-0.147 0-0.283 0.044-0.396 0.12l0.003-0.002c-0.096 0.077-0.166 0.186-0.192 0.309l-0.001 0.004c-0.029 0.141-0.046 0.303-0.046 0.469 0 0.013 0 0.027 0 0.040l-0-0.002v2.489c-0.018 0.24 0.033 0.48 0.15 0.699 0.058 0.074 0.139 0.132 0.233 0.169s0.198 0.050 0.301 0.039c0.015 0.001 0.032 0.002 0.050 0.002 0.136 0 0.262-0.043 0.365-0.116l-0.002 0.001c0.090-0.075 0.153-0.18 0.174-0.299l0-0.003c0.027-0.165 0.039-0.332 0.036-0.498v-0.505h1.167v0.461c0.033 0.456-0.109 0.909-0.403 1.289-0.268 0.305-0.725 0.457-1.396 0.457s-1.179-0.163-1.466-0.501zM38.592 15.249c-0.295-0.319-0.442-0.784-0.442-1.4v-2.158c0-0.609 0.147-1.070 0.442-1.383s0.788-0.469 1.478-0.467c0.686 0 1.177 0.156 1.471 0.467 0.295 0.313 0.444 0.774 0.444 1.383v2.158c0 0.609-0.15 1.076-0.449 1.397s-0.788 0.482-1.466 0.482c-0.679 0-1.181-0.163-1.478-0.48zM40.614 14.731c0.106-0.2 0.154-0.419 0.14-0.638v-2.642c0.001-0.021 0.002-0.046 0.002-0.071 0-0.203-0.052-0.395-0.143-0.561l0.003 0.006c-0.059-0.075-0.142-0.135-0.238-0.172s-0.203-0.050-0.308-0.037c-0.105-0.013-0.212 0-0.308 0.037s-0.18 0.096-0.24 0.172c-0.090 0.16-0.142 0.351-0.142 0.554 0 0.025 0.001 0.050 0.002 0.075l-0-0.003v2.654c-0.015 0.219 0.033 0.439 0.14 0.638 0.068 0.067 0.152 0.121 0.246 0.158 0.089 0.036 0.192 0.057 0.3 0.057s0.211-0.021 0.306-0.059l-0.006 0.002c0.096-0.038 0.178-0.091 0.246-0.158l-0 0v-0.012zM43.39 9.903h1.256l0.945 3.98 0.966-3.98h1.222l0.123 5.744h-0.904l-0.097-3.993-0.932 3.993h-0.725l-0.966-4.007-0.089 4.007h-0.913l0.114-5.744zM49.313 9.903h1.957c1.127 0 1.691 0.544 1.691 1.631 0 1.041-0.593 1.561-1.78 1.56h-0.667v2.554h-1.208l0.007-5.744zM50.985 12.359c0.119 0.013 0.24 0.004 0.355-0.028s0.22-0.084 0.309-0.154c0.112-0.152 0.179-0.342 0.179-0.549 0-0.035-0.002-0.070-0.006-0.105l0 0.004c0.001-0.019 0.001-0.041 0.001-0.063 0-0.163-0.022-0.32-0.062-0.47l0.003 0.013c-0.017-0.057-0.047-0.111-0.089-0.158s-0.093-0.086-0.153-0.116c-0.141-0.059-0.305-0.094-0.477-0.094-0.022 0-0.044 0.001-0.065 0.002l0.003-0h-0.469v1.716h0.469zM54.704 9.903h1.297l1.331 5.744h-1.126l-0.263-1.324h-1.157l-0.271 1.324h-1.143l1.331-5.744zM55.813 13.658l-0.452-2.412-0.452 2.412h0.903zM58.409 9.903h0.846l1.619 3.277v-3.277h1.003v5.744h-0.804l-1.628-3.421v3.421h-1.036l0.002-5.744zM64.224 13.458l-1.346-3.547h1.133l0.821 2.278 0.771-2.278h1.109l-1.329 3.547v2.191h-1.16v-2.191zM35.597 18.16v0.3h-0.986v2.335h-0.413v-2.335h-0.99v-0.3h2.39zM38.688 20.795h-0.319c-0.003 0-0.006 0-0.009 0-0.030 0-0.058-0.009-0.080-0.026l0 0c-0.023-0.014-0.042-0.035-0.053-0.059l-0-0.001-0.285-0.626h-1.367l-0.285 0.626c-0.009 0.028-0.024 0.052-0.044 0.071l-0 0c-0.024 0.016-0.053 0.025-0.084 0.025-0.002 0-0.004-0-0.006-0h-0.319l1.208-2.635h0.42l1.222 2.625zM36.688 19.817h1.14l-0.483-1.072c-0.032-0.068-0.062-0.151-0.086-0.236l-0.003-0.012c-0.017 0.050-0.031 0.098-0.046 0.14l-0.044 0.11-0.478 1.070zM40.772 20.537c0.076 0.003 0.151 0.003 0.227 0 0.136-0.014 0.261-0.042 0.379-0.083l-0.012 0.004c0.053-0.019 0.106-0.042 0.162-0.065v-0.592h-0.483c-0.012 0.001-0.024-0.001-0.035-0.005s-0.021-0.009-0.030-0.016c-0.014-0.011-0.024-0.029-0.024-0.048v-0.202h0.937v1.010c-0.147 0.091-0.317 0.165-0.497 0.212l-0.013 0.003c-0.099 0.025-0.2 0.043-0.302 0.054-0.106 0.011-0.229 0.017-0.353 0.017h-0c-0.005 0-0.010 0-0.016 0-0.212 0-0.416-0.036-0.606-0.102l0.013 0.004c-0.186-0.065-0.347-0.158-0.485-0.277l0.002 0.002c-0.129-0.115-0.234-0.253-0.309-0.409l-0.003-0.008c-0.070-0.156-0.111-0.338-0.111-0.529 0-0.006 0-0.012 0-0.019v0.001c-0-0.006-0-0.012-0-0.019 0-0.192 0.040-0.375 0.113-0.541l-0.003 0.009c0.069-0.156 0.176-0.298 0.312-0.417 0.138-0.119 0.302-0.212 0.483-0.273 0.207-0.067 0.426-0.1 0.647-0.098 0.112 0 0.225 0.008 0.336 0.023 0.198 0.029 0.377 0.089 0.539 0.175l-0.009-0.004c0.074 0.041 0.144 0.087 0.21 0.138l-0.116 0.163c-0.009 0.015-0.023 0.027-0.039 0.036s-0.036 0.014-0.055 0.014c-0.028-0.001-0.053-0.008-0.076-0.021l0.001 0c-0.049-0.023-0.088-0.044-0.125-0.067l0.007 0.004c-0.046-0.026-0.099-0.050-0.155-0.069l-0.007-0.002c-0.146-0.052-0.314-0.082-0.489-0.082-0.014 0-0.028 0-0.042 0.001l0.002-0c-0.005-0-0.012-0-0.018-0-0.16 0-0.314 0.027-0.458 0.076l0.010-0.003c-0.137 0.048-0.256 0.119-0.356 0.21l0.001-0.001c-0.096 0.090-0.172 0.199-0.223 0.322l-0.002 0.006c-0.051 0.13-0.081 0.281-0.081 0.439s0.030 0.309 0.084 0.447l-0.003-0.008c0.058 0.131 0.14 0.242 0.241 0.331l0.001 0.001c0.099 0.090 0.219 0.162 0.353 0.209 0.154 0.046 0.316 0.063 0.478 0.052zM44.622 20.495h1.319v0.3h-1.722v-2.635h0.413l-0.010 2.335zM47.315 20.795h-0.413v-2.635h0.413v2.635zM48.851 18.172c0.025 0.012 0.046 0.028 0.063 0.048l0 0 1.766 1.986c-0.001-0.014-0.002-0.030-0.002-0.047s0.001-0.033 0.002-0.049l-0 0.002v-1.962h0.36v2.646h-0.208c-0.004 0-0.009 0-0.014 0-0.027 0-0.053-0.006-0.076-0.016l0.001 0c-0.025-0.013-0.047-0.030-0.065-0.050l-0-0-1.764-1.984v2.048h-0.345v-2.635h0.215c0.023 0 0.046 0.004 0.068 0.012zM54.083 18.16v0.29h-1.464v0.87h1.186v0.279h-1.186v0.899h1.464v0.29h-1.889v-2.629h1.889zM10.784 1.889l18.347 4.498v15.761l-18.347-4.495v-15.763zM9.607 0.545v17.871l20.699 5.075v-17.869l-20.699-5.077z"></path>
<path d="M20.701 31.789l-20.701-5.080v-17.87l20.701 5.077v17.872z"></path>
<path  d="M9.95 1.687l18.108 4.441-7.701 6.651-18.11-4.443 7.704-6.649zM9.607 0.545l-9.607 8.294 20.701 5.077 9.605-8.294-20.699-5.077zM21.866 30.783l8.44-7.289-8.44-2.071v9.36z"></path>
</symbol>
<symbol id="icon-instagram-2-1" viewBox="0 0 29 32">
<path d="M29.078 9.835c-0.067-1.621-0.317-2.736-0.675-3.704-0.382-1.055-0.956-1.958-1.686-2.709l0.002 0.002c-0.704-0.753-1.564-1.351-2.529-1.744l-0.048-0.017c-0.927-0.376-1.984-0.638-3.531-0.71-1.557-0.077-2.052-0.095-6.006-0.095-3.952 0-4.447 0.016-6 0.089-1.546 0.073-2.61 0.335-3.53 0.71-1.016 0.409-1.878 1.009-2.578 1.761l-0.004 0.004c-0.724 0.749-1.295 1.65-1.661 2.651l-0.017 0.053c-0.36 0.972-0.608 2.081-0.677 3.704-0.074 1.635-0.092 2.154-0.092 6.301 0 4.145 0.017 4.665 0.086 6.294 0.068 1.622 0.319 2.736 0.677 3.704 0.384 1.054 0.957 1.957 1.685 2.709l-0.002-0.002c0.728 0.777 1.61 1.38 2.576 1.761 0.927 0.376 1.985 0.638 3.531 0.71 1.553 0.071 2.048 0.089 6 0.089 3.953 0 4.448-0.017 6-0.089 1.547-0.073 2.61-0.335 3.531-0.71 1.956-0.793 3.504-2.416 4.26-4.469 0.358-0.972 0.608-2.081 0.677-3.704 0.068-1.63 0.084-2.148 0.084-6.295 0-4.146-0.006-4.665-0.073-6.294zM26.458 22.305c-0.064 1.491-0.303 2.297-0.501 2.834-0.485 1.32-1.476 2.356-2.733 2.887l-0.032 0.012c-0.509 0.208-1.284 0.459-2.7 0.524-1.536 0.073-1.996 0.090-5.881 0.090-3.883 0-4.351-0.017-5.881-0.090-1.422-0.066-2.189-0.316-2.702-0.524-0.659-0.26-1.217-0.648-1.668-1.137l-0.003-0.003c-0.472-0.484-0.843-1.070-1.077-1.721l-0.010-0.033c-0.198-0.539-0.437-1.349-0.499-2.834-0.068-1.611-0.086-2.095-0.086-6.169 0-4.076 0.017-4.565 0.086-6.169 0.063-1.492 0.301-2.297 0.499-2.834 0.233-0.662 0.604-1.266 1.092-1.754 0.455-0.491 1.014-0.879 1.644-1.129l0.030-0.011c0.509-0.21 1.284-0.46 2.7-0.524 1.536-0.073 1.997-0.090 5.881-0.090 3.889 0 4.351 0.017 5.881 0.089 1.422 0.066 2.189 0.316 2.702 0.524 0.63 0.246 1.205 0.633 1.671 1.141 0.483 0.495 0.853 1.092 1.087 1.754 0.198 0.537 0.437 1.348 0.499 2.834 0.068 1.61 0.086 2.093 0.086 6.169s-0.017 4.552-0.086 6.163z"></path>
<path fill="#afb1b8" style="fill: var(--color1, #afb1b8)" d="M14.605 8.285c-4.128 0-7.479 3.514-7.479 7.846 0 4.33 3.351 7.846 7.479 7.846 4.129 0 7.479-3.515 7.479-7.846 0-4.332-3.349-7.846-7.479-7.846zM14.605 21.219c-2.678 0-4.851-2.279-4.851-5.089 0-2.811 2.173-5.090 4.851-5.090s4.851 2.279 4.851 5.090c0 2.809-2.173 5.089-4.851 5.089zM24.126 7.975c0 1.010-0.782 1.831-1.747 1.831-0.964 0-1.747-0.821-1.747-1.831 0-1.012 0.783-1.833 1.747-1.833 0.965 0 1.747 0.821 1.747 1.833z"></path>
</symbol>
<symbol id="icon-linkedin-1-1" viewBox="0 0 29 32">
<path  d="M29.1 31.935v-0.003h0.007v-11.199c0-5.48-1.125-9.701-7.23-9.701-2.936 0-4.905 1.69-5.71 3.293h-0.084v-2.78h-5.79v20.388h6.029v-10.096c0-2.658 0.48-5.228 3.619-5.228 3.092 0 3.137 3.033 3.137 5.4v9.927h6.023zM0.476 11.546h6.036v20.388h-6.036v-20.388zM3.492 1.394c-1.93 0-3.496 1.643-3.496 3.668 0 2.022 1.566 3.7 3.496 3.7 1.929 0 3.495-1.678 3.495-3.703 0-2.023-1.566-3.668-3.495-3.668z"></path>
</symbol>
<symbol id="icon-twitter-1-1" viewBox="0 0 29 32">
<path  d="M29.107 7.195c-1 0.471-2.16 0.818-3.378 0.983l-0.062 0.007c1.25-0.797 2.18-1.999 2.614-3.418l0.012-0.044c-1.087 0.688-2.354 1.213-3.709 1.502l-0.076 0.014c-1.071-1.21-2.626-1.972-4.358-1.981h-0.002c-3.304 0-5.963 2.814-5.963 6.262 0 0.496 0.039 0.975 0.138 1.428-4.962-0.253-9.352-2.748-12.301-6.547-0.515 0.912-0.818 2.002-0.82 3.163v0c0 2.169 1.065 4.090 2.651 5.204-0.997-0.031-1.922-0.313-2.721-0.786l0.026 0.014v0.068c0 3.042 2.068 5.571 4.782 6.153-0.456 0.131-0.979 0.207-1.52 0.207-0.016 0-0.031-0-0.047-0h0.002c-0.027 0-0.058 0.001-0.090 0.001-0.368 0-0.727-0.040-1.073-0.115l0.033 0.006c0.773 2.479 2.966 4.303 5.576 4.361-1.998 1.662-4.591 2.671-7.419 2.671-0.497 0-0.986-0.031-1.466-0.091l0.057 0.006c2.557 1.759 5.72 2.809 9.129 2.809 0.009 0 0.019 0 0.028-0h-0.001c10.982 0 16.987-9.543 16.987-17.816 0-0.277-0.009-0.543-0.022-0.809 1.185-0.899 2.18-1.976 2.962-3.201l0.029-0.049z"></path>
</symbol>
</defs>
</svg>
